# xmcd
#
# Track frame offsets: 
#        150
#        3042
#        23360
#        43122
#        69465
#        94978
#        113973
#        133896
#        158914
#        179207
#        193516
#        214832
#        239231
#        272359
#        297433
#        326401
#
# Disc length: 4661 seconds
#
# Revision: 0
# Processed by: cddbd v1.5.2PL0 Copyright (c) Steve Scherf et al.
# Submitted via: ExactAudioCopyFreeDBPlugin 1.0
#
DISCID=ec123310
DTITLE=Bonnie Raitt And Lowell George With John hammond - Ultrasonic S
DTITLE=tudios 1972
DYEAR=2014
DGENRE=Blues
TTITLE0=Intro
TTITLE1=Love Me Like A Man
TTITLE2=Under The Falling Sky
TTITLE3=Love Has No Pride
TTITLE4=Going Down To Louisiana
TTITLE5=Can't Find My Way Home
TTITLE6=Big Road Blues
TTITLE7=You Got To Know How
TTITLE8=A Apolitical Blues
TTITLE9=Riding In The Moonlight
TTITLE10=As The Years Go By
TTITLE11=All Night Long
TTITLE12=I Can't Be Satisfied
TTITLE13=The Sky Is Crying
TTITLE14=Honest I Do
TTITLE15=It's Too Late
EXTD=
EXTT0=
EXTT1=
EXTT2=
EXTT3=
EXTT4=
EXTT5=
EXTT6=
EXTT7=
EXTT8=
EXTT9=
EXTT10=
EXTT11=
EXTT12=
EXTT13=
EXTT14=
EXTT15=
PLAYORDER=
